<mxfile host="app.diagrams.net" modified="2023-11-12T15:33:54.793Z" agent="Mozilla/5.0 (Macintosh; Intel Mac OS X 10_15_7) AppleWebKit/537.36 (KHTML, like Gecko) Chrome/118.0.0.0 Safari/537.36" etag="b2xc96XDjDjLjA7BKjkH" version="21.6.8" type="github">
  <diagram name="第 1 页" id="uXKxFH6BH8vUdpIIgOjY">
    <mxGraphModel dx="1461" dy="929" grid="1" gridSize="10" guides="1" tooltips="1" connect="1" arrows="1" fold="1" page="1" pageScale="1" pageWidth="827" pageHeight="1169" math="0" shadow="0">
      <root>
        <mxCell id="0" />
        <mxCell id="1" parent="0" />
        <mxCell id="V1CnUA2cE-rUWkjXoKsr-1" value="ID" style="rounded=0;whiteSpace=wrap;html=1;" vertex="1" parent="1">
          <mxGeometry x="70" y="190" width="120" height="40" as="geometry" />
        </mxCell>
        <mxCell id="V1CnUA2cE-rUWkjXoKsr-2" value="活动ID" style="rounded=0;whiteSpace=wrap;html=1;" vertex="1" parent="1">
          <mxGeometry x="190" y="190" width="120" height="40" as="geometry" />
        </mxCell>
        <mxCell id="V1CnUA2cE-rUWkjXoKsr-3" value="转换配置" style="rounded=0;whiteSpace=wrap;html=1;" vertex="1" parent="1">
          <mxGeometry x="310" y="190" width="120" height="40" as="geometry" />
        </mxCell>
        <mxCell id="V1CnUA2cE-rUWkjXoKsr-4" value="发放配置" style="rounded=0;whiteSpace=wrap;html=1;" vertex="1" parent="1">
          <mxGeometry x="430" y="190" width="120" height="40" as="geometry" />
        </mxCell>
        <mxCell id="V1CnUA2cE-rUWkjXoKsr-5" value="创建时间" style="rounded=0;whiteSpace=wrap;html=1;" vertex="1" parent="1">
          <mxGeometry x="790" y="190" width="120" height="40" as="geometry" />
        </mxCell>
        <mxCell id="V1CnUA2cE-rUWkjXoKsr-6" value="修改时间" style="rounded=0;whiteSpace=wrap;html=1;" vertex="1" parent="1">
          <mxGeometry x="910" y="190" width="120" height="40" as="geometry" />
        </mxCell>
        <mxCell id="V1CnUA2cE-rUWkjXoKsr-7" value="创建人" style="rounded=0;whiteSpace=wrap;html=1;" vertex="1" parent="1">
          <mxGeometry x="550" y="190" width="120" height="40" as="geometry" />
        </mxCell>
        <mxCell id="V1CnUA2cE-rUWkjXoKsr-8" value="修改人" style="rounded=0;whiteSpace=wrap;html=1;" vertex="1" parent="1">
          <mxGeometry x="670" y="190" width="120" height="40" as="geometry" />
        </mxCell>
        <mxCell id="V1CnUA2cE-rUWkjXoKsr-9" value="微信号信息" style="rounded=0;whiteSpace=wrap;html=1;" vertex="1" parent="1">
          <mxGeometry x="1030" y="190" width="240" height="40" as="geometry" />
        </mxCell>
        <mxCell id="V1CnUA2cE-rUWkjXoKsr-10" value="1" style="rounded=0;whiteSpace=wrap;html=1;" vertex="1" parent="1">
          <mxGeometry x="70" y="230" width="120" height="40" as="geometry" />
        </mxCell>
        <mxCell id="V1CnUA2cE-rUWkjXoKsr-11" value="15310" style="rounded=0;whiteSpace=wrap;html=1;" vertex="1" parent="1">
          <mxGeometry x="190" y="230" width="120" height="40" as="geometry" />
        </mxCell>
        <mxCell id="V1CnUA2cE-rUWkjXoKsr-12" value="&lt;u&gt;查看&lt;/u&gt;" style="rounded=0;whiteSpace=wrap;html=1;" vertex="1" parent="1">
          <mxGeometry x="310" y="230" width="120" height="40" as="geometry" />
        </mxCell>
        <mxCell id="V1CnUA2cE-rUWkjXoKsr-13" value="&lt;u&gt;查看&lt;/u&gt;" style="rounded=0;whiteSpace=wrap;html=1;" vertex="1" parent="1">
          <mxGeometry x="430" y="230" width="120" height="40" as="geometry" />
        </mxCell>
        <mxCell id="V1CnUA2cE-rUWkjXoKsr-14" value="2023-11-12 12:00:00" style="rounded=0;whiteSpace=wrap;html=1;" vertex="1" parent="1">
          <mxGeometry x="790" y="230" width="120" height="40" as="geometry" />
        </mxCell>
        <mxCell id="V1CnUA2cE-rUWkjXoKsr-15" value="2023-11-12 12:00:00" style="rounded=0;whiteSpace=wrap;html=1;" vertex="1" parent="1">
          <mxGeometry x="910" y="230" width="120" height="40" as="geometry" />
        </mxCell>
        <mxCell id="V1CnUA2cE-rUWkjXoKsr-16" value="avenhuang" style="rounded=0;whiteSpace=wrap;html=1;" vertex="1" parent="1">
          <mxGeometry x="550" y="230" width="120" height="40" as="geometry" />
        </mxCell>
        <mxCell id="V1CnUA2cE-rUWkjXoKsr-17" value="avenhuang" style="rounded=0;whiteSpace=wrap;html=1;" vertex="1" parent="1">
          <mxGeometry x="670" y="230" width="120" height="40" as="geometry" />
        </mxCell>
        <mxCell id="V1CnUA2cE-rUWkjXoKsr-18" value="涉及3200个微信号，&lt;font color=&quot;#ff2f05&quot;&gt;异常150个&lt;/font&gt;&amp;nbsp;&amp;nbsp;" style="rounded=0;whiteSpace=wrap;html=1;" vertex="1" parent="1">
          <mxGeometry x="1030" y="230" width="230" height="40" as="geometry" />
        </mxCell>
        <mxCell id="V1CnUA2cE-rUWkjXoKsr-21" value="发放明细" style="rounded=0;whiteSpace=wrap;html=1;" vertex="1" parent="1">
          <mxGeometry x="1260" y="190" width="120" height="40" as="geometry" />
        </mxCell>
        <mxCell id="V1CnUA2cE-rUWkjXoKsr-22" value="&lt;u&gt;查看&lt;/u&gt;" style="rounded=0;whiteSpace=wrap;html=1;" vertex="1" parent="1">
          <mxGeometry x="1260" y="230" width="120" height="40" as="geometry" />
        </mxCell>
        <mxCell id="V1CnUA2cE-rUWkjXoKsr-23" value="2" style="rounded=0;whiteSpace=wrap;html=1;" vertex="1" parent="1">
          <mxGeometry x="70" y="270" width="120" height="40" as="geometry" />
        </mxCell>
        <mxCell id="V1CnUA2cE-rUWkjXoKsr-24" value="15311" style="rounded=0;whiteSpace=wrap;html=1;" vertex="1" parent="1">
          <mxGeometry x="190" y="270" width="120" height="40" as="geometry" />
        </mxCell>
        <mxCell id="V1CnUA2cE-rUWkjXoKsr-25" value="&lt;u&gt;查看&lt;/u&gt;" style="rounded=0;whiteSpace=wrap;html=1;" vertex="1" parent="1">
          <mxGeometry x="310" y="270" width="120" height="40" as="geometry" />
        </mxCell>
        <mxCell id="V1CnUA2cE-rUWkjXoKsr-26" value="&lt;u&gt;查看&lt;/u&gt;" style="rounded=0;whiteSpace=wrap;html=1;" vertex="1" parent="1">
          <mxGeometry x="430" y="270" width="120" height="40" as="geometry" />
        </mxCell>
        <mxCell id="V1CnUA2cE-rUWkjXoKsr-27" value="2023-11-12 12:00:00" style="rounded=0;whiteSpace=wrap;html=1;" vertex="1" parent="1">
          <mxGeometry x="790" y="270" width="120" height="40" as="geometry" />
        </mxCell>
        <mxCell id="V1CnUA2cE-rUWkjXoKsr-28" value="2023-11-12 12:00:00" style="rounded=0;whiteSpace=wrap;html=1;" vertex="1" parent="1">
          <mxGeometry x="910" y="270" width="120" height="40" as="geometry" />
        </mxCell>
        <mxCell id="V1CnUA2cE-rUWkjXoKsr-29" value="avenhuang" style="rounded=0;whiteSpace=wrap;html=1;" vertex="1" parent="1">
          <mxGeometry x="550" y="270" width="120" height="40" as="geometry" />
        </mxCell>
        <mxCell id="V1CnUA2cE-rUWkjXoKsr-30" value="avenhuang" style="rounded=0;whiteSpace=wrap;html=1;" vertex="1" parent="1">
          <mxGeometry x="670" y="270" width="120" height="40" as="geometry" />
        </mxCell>
        <mxCell id="V1CnUA2cE-rUWkjXoKsr-31" value="涉及3200个微信号，&lt;font color=&quot;#24850c&quot;&gt;异常0个&lt;/font&gt;&amp;nbsp;" style="rounded=0;whiteSpace=wrap;html=1;" vertex="1" parent="1">
          <mxGeometry x="1030" y="270" width="230" height="40" as="geometry" />
        </mxCell>
        <mxCell id="V1CnUA2cE-rUWkjXoKsr-32" value="&lt;u&gt;查看&lt;/u&gt;" style="rounded=0;whiteSpace=wrap;html=1;" vertex="1" parent="1">
          <mxGeometry x="1260" y="270" width="120" height="40" as="geometry" />
        </mxCell>
        <mxCell id="V1CnUA2cE-rUWkjXoKsr-33" value="ID" style="rounded=0;whiteSpace=wrap;html=1;" vertex="1" parent="1">
          <mxGeometry x="75" y="525" width="120" height="40" as="geometry" />
        </mxCell>
        <mxCell id="V1CnUA2cE-rUWkjXoKsr-34" value="记录开始日期" style="rounded=0;whiteSpace=wrap;html=1;" vertex="1" parent="1">
          <mxGeometry x="195" y="525" width="120" height="40" as="geometry" />
        </mxCell>
        <mxCell id="V1CnUA2cE-rUWkjXoKsr-35" value="记录结束时间" style="rounded=0;whiteSpace=wrap;html=1;" vertex="1" parent="1">
          <mxGeometry x="315" y="525" width="120" height="40" as="geometry" />
        </mxCell>
        <mxCell id="V1CnUA2cE-rUWkjXoKsr-36" value="原始礼包数据" style="rounded=0;whiteSpace=wrap;html=1;" vertex="1" parent="1">
          <mxGeometry x="435" y="525" width="120" height="40" as="geometry" />
        </mxCell>
        <mxCell id="V1CnUA2cE-rUWkjXoKsr-63" value="&lt;h1&gt;Heading&lt;/h1&gt;&lt;p&gt;1. 同个活动id只能有一个人参与&lt;/p&gt;&lt;p&gt;2. 同个活动可能会有多个ams单号 ？ 先不考虑&lt;/p&gt;&lt;p&gt;3. 自动记录开始时间，结束时间，点击确认的时候记录{流水号} —&amp;gt; status&lt;/p&gt;" style="text;html=1;strokeColor=none;fillColor=none;spacing=5;spacingTop=-20;whiteSpace=wrap;overflow=hidden;rounded=0;" vertex="1" parent="1">
          <mxGeometry x="75" y="970" width="540" height="120" as="geometry" />
        </mxCell>
        <mxCell id="V1CnUA2cE-rUWkjXoKsr-76" value="&lt;h1&gt;状态&lt;/h1&gt;&lt;p&gt;1. 未上传礼包记录&lt;/p&gt;&lt;p&gt;2. 未上传业受微信转换结果&lt;/p&gt;&lt;p&gt;3. 待确认校验结果&lt;/p&gt;&lt;p&gt;4. 已确认校验结果&lt;/p&gt;&lt;p&gt;5. 发放完成&lt;/p&gt;" style="text;html=1;strokeColor=none;fillColor=none;spacing=5;spacingTop=-20;whiteSpace=wrap;overflow=hidden;rounded=0;" vertex="1" parent="1">
          <mxGeometry x="1409.46" y="880" width="190" height="180" as="geometry" />
        </mxCell>
        <mxCell id="V1CnUA2cE-rUWkjXoKsr-77" value="" style="endArrow=classic;html=1;rounded=0;" edge="1" parent="1">
          <mxGeometry width="50" height="50" relative="1" as="geometry">
            <mxPoint x="1320" y="310" as="sourcePoint" />
            <mxPoint x="1090" y="510" as="targetPoint" />
          </mxGeometry>
        </mxCell>
        <mxCell id="V1CnUA2cE-rUWkjXoKsr-78" value="弹窗" style="edgeLabel;html=1;align=center;verticalAlign=middle;resizable=0;points=[];" vertex="1" connectable="0" parent="V1CnUA2cE-rUWkjXoKsr-77">
          <mxGeometry x="-0.0949" y="-2" relative="1" as="geometry">
            <mxPoint x="-1" y="1" as="offset" />
          </mxGeometry>
        </mxCell>
        <mxCell id="V1CnUA2cE-rUWkjXoKsr-42" value="11" style="rounded=0;whiteSpace=wrap;html=1;" vertex="1" parent="1">
          <mxGeometry x="75" y="565" width="120" height="102.5" as="geometry" />
        </mxCell>
        <mxCell id="V1CnUA2cE-rUWkjXoKsr-43" value="2023-11-11 00:00:00" style="rounded=0;whiteSpace=wrap;html=1;" vertex="1" parent="1">
          <mxGeometry x="195" y="565" width="120" height="102.5" as="geometry" />
        </mxCell>
        <mxCell id="V1CnUA2cE-rUWkjXoKsr-44" value="2023-11-12 00:00:00" style="rounded=0;whiteSpace=wrap;html=1;" vertex="1" parent="1">
          <mxGeometry x="315" y="565" width="120" height="102.5" as="geometry" />
        </mxCell>
        <mxCell id="V1CnUA2cE-rUWkjXoKsr-45" value="&lt;u&gt;查看&lt;/u&gt;" style="rounded=0;whiteSpace=wrap;html=1;" vertex="1" parent="1">
          <mxGeometry x="435" y="565" width="120" height="102.5" as="geometry" />
        </mxCell>
        <mxCell id="V1CnUA2cE-rUWkjXoKsr-53" value="12" style="rounded=0;whiteSpace=wrap;html=1;" vertex="1" parent="1">
          <mxGeometry x="75" y="667.5" width="120" height="102.5" as="geometry" />
        </mxCell>
        <mxCell id="V1CnUA2cE-rUWkjXoKsr-54" value="2023-11-12 00:00:00" style="rounded=0;whiteSpace=wrap;html=1;" vertex="1" parent="1">
          <mxGeometry x="195" y="667.5" width="120" height="102.5" as="geometry" />
        </mxCell>
        <mxCell id="V1CnUA2cE-rUWkjXoKsr-55" value="2023-11-13 00:00:00" style="rounded=0;whiteSpace=wrap;html=1;" vertex="1" parent="1">
          <mxGeometry x="315" y="667.5" width="120" height="102.5" as="geometry" />
        </mxCell>
        <mxCell id="V1CnUA2cE-rUWkjXoKsr-56" value="&lt;u&gt;查看&lt;/u&gt;" style="rounded=0;whiteSpace=wrap;html=1;" vertex="1" parent="1">
          <mxGeometry x="435" y="667.5" width="120" height="102.5" as="geometry" />
        </mxCell>
        <mxCell id="V1CnUA2cE-rUWkjXoKsr-69" value="" style="group" vertex="1" connectable="0" parent="1">
          <mxGeometry x="555" y="525" width="996.8700000000001" height="245" as="geometry" />
        </mxCell>
        <mxCell id="V1CnUA2cE-rUWkjXoKsr-37" value="转换成功数据" style="rounded=0;whiteSpace=wrap;html=1;container=0;" vertex="1" parent="V1CnUA2cE-rUWkjXoKsr-69">
          <mxGeometry x="284.81927710843377" width="142.40963855421688" height="40" as="geometry" />
        </mxCell>
        <mxCell id="V1CnUA2cE-rUWkjXoKsr-38" value="黑名单数据" style="rounded=0;whiteSpace=wrap;html=1;container=0;" vertex="1" parent="V1CnUA2cE-rUWkjXoKsr-69">
          <mxGeometry x="427.22891566265065" width="142.40963855421688" height="40" as="geometry" />
        </mxCell>
        <mxCell id="V1CnUA2cE-rUWkjXoKsr-39" value="成功关联微信号数据" style="rounded=0;whiteSpace=wrap;html=1;container=0;" vertex="1" parent="V1CnUA2cE-rUWkjXoKsr-69">
          <mxGeometry width="142.40963855421688" height="40" as="geometry" />
        </mxCell>
        <mxCell id="V1CnUA2cE-rUWkjXoKsr-40" value="转换失败数据" style="rounded=0;whiteSpace=wrap;html=1;container=0;" vertex="1" parent="V1CnUA2cE-rUWkjXoKsr-69">
          <mxGeometry x="142.40963855421688" width="142.40963855421688" height="40" as="geometry" />
        </mxCell>
        <mxCell id="V1CnUA2cE-rUWkjXoKsr-51" value="对账明细" style="rounded=0;whiteSpace=wrap;html=1;container=0;" vertex="1" parent="V1CnUA2cE-rUWkjXoKsr-69">
          <mxGeometry x="712.0503614457832" width="142.40963855421688" height="40" as="geometry" />
        </mxCell>
        <mxCell id="V1CnUA2cE-rUWkjXoKsr-46" value="涉及红包数：67545个&lt;br style=&quot;border-color: var(--border-color);&quot;&gt;涉及用户数：32321人&lt;br style=&quot;border-color: var(--border-color);&quot;&gt;涉及微信号：12128个&lt;br style=&quot;border-color: var(--border-color);&quot;&gt;需发放总额：1634215元&lt;br style=&quot;border-color: var(--border-color);&quot;&gt;&lt;u style=&quot;border-color: var(--border-color);&quot;&gt;查看&lt;/u&gt;" style="rounded=0;whiteSpace=wrap;html=1;container=0;" vertex="1" parent="V1CnUA2cE-rUWkjXoKsr-69">
          <mxGeometry x="284.81927710843377" y="40" width="142.40963855421688" height="102.5" as="geometry" />
        </mxCell>
        <mxCell id="V1CnUA2cE-rUWkjXoKsr-47" value="涉及红包数：67545个&lt;br style=&quot;border-color: var(--border-color);&quot;&gt;涉及用户数：32321人&lt;br style=&quot;border-color: var(--border-color);&quot;&gt;涉及微信号：12128个&lt;br style=&quot;border-color: var(--border-color);&quot;&gt;需发放总额：1634215元&lt;br style=&quot;border-color: var(--border-color);&quot;&gt;&lt;u style=&quot;border-color: var(--border-color);&quot;&gt;查看&lt;/u&gt;" style="rounded=0;whiteSpace=wrap;html=1;container=0;" vertex="1" parent="V1CnUA2cE-rUWkjXoKsr-69">
          <mxGeometry x="427.22891566265065" y="40" width="142.40963855421688" height="102.5" as="geometry" />
        </mxCell>
        <mxCell id="V1CnUA2cE-rUWkjXoKsr-48" value="涉及红包数：67545个 &lt;br&gt;涉及用户数：32321人&lt;br&gt;涉及微信号：12128个&lt;br&gt;需发放总额：1634215元&lt;br&gt;&lt;u&gt;查看&lt;/u&gt;" style="rounded=0;whiteSpace=wrap;html=1;container=0;" vertex="1" parent="V1CnUA2cE-rUWkjXoKsr-69">
          <mxGeometry y="40" width="142.40963855421688" height="102.5" as="geometry" />
        </mxCell>
        <mxCell id="V1CnUA2cE-rUWkjXoKsr-49" value="涉及红包数：67545个&lt;br style=&quot;border-color: var(--border-color);&quot;&gt;涉及用户数：32321人&lt;br style=&quot;border-color: var(--border-color);&quot;&gt;涉及微信号：12128个&lt;br style=&quot;border-color: var(--border-color);&quot;&gt;需发放总额：1634215元&lt;br style=&quot;border-color: var(--border-color);&quot;&gt;&lt;u style=&quot;border-color: var(--border-color);&quot;&gt;查看&lt;/u&gt;" style="rounded=0;whiteSpace=wrap;html=1;container=0;" vertex="1" parent="V1CnUA2cE-rUWkjXoKsr-69">
          <mxGeometry x="142.40963855421688" y="40" width="142.40963855421688" height="102.5" as="geometry" />
        </mxCell>
        <mxCell id="V1CnUA2cE-rUWkjXoKsr-52" value="&lt;u&gt;查看&lt;/u&gt;" style="rounded=0;whiteSpace=wrap;html=1;container=0;" vertex="1" parent="V1CnUA2cE-rUWkjXoKsr-69">
          <mxGeometry x="712.0503614457832" y="40" width="142.40963855421688" height="102.5" as="geometry" />
        </mxCell>
        <mxCell id="V1CnUA2cE-rUWkjXoKsr-57" value="涉及红包数：67545个&lt;br style=&quot;border-color: var(--border-color);&quot;&gt;涉及用户数：32321人&lt;br style=&quot;border-color: var(--border-color);&quot;&gt;涉及微信号：12128个&lt;br style=&quot;border-color: var(--border-color);&quot;&gt;需发放总额：1634215元&lt;br style=&quot;border-color: var(--border-color);&quot;&gt;&lt;u style=&quot;border-color: var(--border-color);&quot;&gt;查看&lt;/u&gt;" style="rounded=0;whiteSpace=wrap;html=1;container=0;" vertex="1" parent="V1CnUA2cE-rUWkjXoKsr-69">
          <mxGeometry x="284.81927710843377" y="142.5" width="142.40963855421688" height="102.5" as="geometry" />
        </mxCell>
        <mxCell id="V1CnUA2cE-rUWkjXoKsr-58" value="涉及红包数：67545个&lt;br style=&quot;border-color: var(--border-color);&quot;&gt;涉及用户数：32321人&lt;br style=&quot;border-color: var(--border-color);&quot;&gt;涉及微信号：12128个&lt;br style=&quot;border-color: var(--border-color);&quot;&gt;需发放总额：1634215元&lt;br style=&quot;border-color: var(--border-color);&quot;&gt;&lt;u style=&quot;border-color: var(--border-color);&quot;&gt;查看&lt;/u&gt;" style="rounded=0;whiteSpace=wrap;html=1;container=0;" vertex="1" parent="V1CnUA2cE-rUWkjXoKsr-69">
          <mxGeometry x="427.22891566265065" y="142.5" width="142.40963855421688" height="102.5" as="geometry" />
        </mxCell>
        <mxCell id="V1CnUA2cE-rUWkjXoKsr-59" value="涉及红包数：67545个&lt;br style=&quot;border-color: var(--border-color);&quot;&gt;涉及用户数：32321人&lt;br style=&quot;border-color: var(--border-color);&quot;&gt;涉及微信号：12128个&lt;br style=&quot;border-color: var(--border-color);&quot;&gt;需发放总额：1634215元&lt;br style=&quot;border-color: var(--border-color);&quot;&gt;&lt;u style=&quot;border-color: var(--border-color);&quot;&gt;查看&lt;/u&gt;" style="rounded=0;whiteSpace=wrap;html=1;container=0;" vertex="1" parent="V1CnUA2cE-rUWkjXoKsr-69">
          <mxGeometry y="142.5" width="142.40963855421688" height="102.5" as="geometry" />
        </mxCell>
        <mxCell id="V1CnUA2cE-rUWkjXoKsr-60" value="涉及红包数：67545个&lt;br style=&quot;border-color: var(--border-color);&quot;&gt;涉及用户数：32321人&lt;br style=&quot;border-color: var(--border-color);&quot;&gt;涉及微信号：12128个&lt;br style=&quot;border-color: var(--border-color);&quot;&gt;需发放总额：1634215元&lt;br style=&quot;border-color: var(--border-color);&quot;&gt;&lt;u style=&quot;border-color: var(--border-color);&quot;&gt;查看&lt;/u&gt;" style="rounded=0;whiteSpace=wrap;html=1;container=0;" vertex="1" parent="V1CnUA2cE-rUWkjXoKsr-69">
          <mxGeometry x="142.40963855421688" y="142.5" width="142.40963855421688" height="102.5" as="geometry" />
        </mxCell>
        <mxCell id="V1CnUA2cE-rUWkjXoKsr-62" value="&lt;u&gt;查看&lt;/u&gt;" style="rounded=0;whiteSpace=wrap;html=1;container=0;" vertex="1" parent="V1CnUA2cE-rUWkjXoKsr-69">
          <mxGeometry x="712.0503614457832" y="142.5" width="142.40963855421688" height="102.5" as="geometry" />
        </mxCell>
        <mxCell id="V1CnUA2cE-rUWkjXoKsr-70" value="最终数据" style="rounded=0;whiteSpace=wrap;html=1;container=0;" vertex="1" parent="V1CnUA2cE-rUWkjXoKsr-69">
          <mxGeometry x="569.6389156626508" width="142.40963855421688" height="40" as="geometry" />
        </mxCell>
        <mxCell id="V1CnUA2cE-rUWkjXoKsr-71" value="涉及红包数：67545个&lt;br style=&quot;border-color: var(--border-color);&quot;&gt;涉及用户数：32321人&lt;br style=&quot;border-color: var(--border-color);&quot;&gt;涉及微信号：12128个&lt;br style=&quot;border-color: var(--border-color);&quot;&gt;需发放总额：1634215元&lt;br style=&quot;border-color: var(--border-color);&quot;&gt;&lt;u style=&quot;border-color: var(--border-color);&quot;&gt;查看&lt;/u&gt;" style="rounded=0;whiteSpace=wrap;html=1;container=0;" vertex="1" parent="V1CnUA2cE-rUWkjXoKsr-69">
          <mxGeometry x="569.6389156626508" y="40" width="142.40963855421688" height="102.5" as="geometry" />
        </mxCell>
        <mxCell id="V1CnUA2cE-rUWkjXoKsr-72" value="涉及红包数：67545个&lt;br style=&quot;border-color: var(--border-color);&quot;&gt;涉及用户数：32321人&lt;br style=&quot;border-color: var(--border-color);&quot;&gt;涉及微信号：12128个&lt;br style=&quot;border-color: var(--border-color);&quot;&gt;需发放总额：1634215元&lt;br style=&quot;border-color: var(--border-color);&quot;&gt;&lt;u style=&quot;border-color: var(--border-color);&quot;&gt;查看&lt;/u&gt;" style="rounded=0;whiteSpace=wrap;html=1;container=0;" vertex="1" parent="V1CnUA2cE-rUWkjXoKsr-69">
          <mxGeometry x="569.6389156626508" y="142.5" width="142.40963855421688" height="102.5" as="geometry" />
        </mxCell>
        <mxCell id="V1CnUA2cE-rUWkjXoKsr-73" value="状态" style="rounded=0;whiteSpace=wrap;html=1;container=0;" vertex="1" parent="V1CnUA2cE-rUWkjXoKsr-69">
          <mxGeometry x="854.4603614457833" width="142.40963855421688" height="40" as="geometry" />
        </mxCell>
        <mxCell id="V1CnUA2cE-rUWkjXoKsr-74" value="&lt;u&gt;待确认校验结果&lt;/u&gt;" style="rounded=0;whiteSpace=wrap;html=1;container=0;" vertex="1" parent="V1CnUA2cE-rUWkjXoKsr-69">
          <mxGeometry x="854.4603614457833" y="40" width="142.40963855421688" height="102.5" as="geometry" />
        </mxCell>
        <mxCell id="V1CnUA2cE-rUWkjXoKsr-75" value="&lt;p style=&quot;border-color: var(--border-color); text-align: left;&quot;&gt;&lt;font color=&quot;#0066cc&quot;&gt;&lt;u&gt;已确认校验结果&lt;/u&gt;&lt;/font&gt;&lt;/p&gt;" style="rounded=0;whiteSpace=wrap;html=1;container=0;" vertex="1" parent="V1CnUA2cE-rUWkjXoKsr-69">
          <mxGeometry x="854.4603614457833" y="142.5" width="142.40963855421688" height="102.5" as="geometry" />
        </mxCell>
        <mxCell id="V1CnUA2cE-rUWkjXoKsr-79" value="13" style="rounded=0;whiteSpace=wrap;html=1;" vertex="1" parent="1">
          <mxGeometry x="75" y="760" width="120" height="102.5" as="geometry" />
        </mxCell>
        <mxCell id="V1CnUA2cE-rUWkjXoKsr-80" value="2023-11-13 00:00:00" style="rounded=0;whiteSpace=wrap;html=1;" vertex="1" parent="1">
          <mxGeometry x="195" y="760" width="120" height="102.5" as="geometry" />
        </mxCell>
        <mxCell id="V1CnUA2cE-rUWkjXoKsr-81" value="2023-11-14 00:00:00" style="rounded=0;whiteSpace=wrap;html=1;" vertex="1" parent="1">
          <mxGeometry x="315" y="760" width="120" height="102.5" as="geometry" />
        </mxCell>
        <mxCell id="V1CnUA2cE-rUWkjXoKsr-82" value="&lt;u&gt;查看&lt;/u&gt;" style="rounded=0;whiteSpace=wrap;html=1;" vertex="1" parent="1">
          <mxGeometry x="435" y="760" width="120" height="102.5" as="geometry" />
        </mxCell>
        <mxCell id="V1CnUA2cE-rUWkjXoKsr-83" value="涉及红包数：67545个&lt;br style=&quot;border-color: var(--border-color);&quot;&gt;涉及用户数：32321人&lt;br style=&quot;border-color: var(--border-color);&quot;&gt;涉及微信号：12128个&lt;br style=&quot;border-color: var(--border-color);&quot;&gt;需发放总额：1634215元&lt;br style=&quot;border-color: var(--border-color);&quot;&gt;&lt;u style=&quot;border-color: var(--border-color);&quot;&gt;查看&lt;/u&gt;" style="rounded=0;whiteSpace=wrap;html=1;container=0;" vertex="1" parent="1">
          <mxGeometry x="839.8192771084338" y="760" width="142.40963855421688" height="102.5" as="geometry" />
        </mxCell>
        <mxCell id="V1CnUA2cE-rUWkjXoKsr-84" value="涉及红包数：67545个&lt;br style=&quot;border-color: var(--border-color);&quot;&gt;涉及用户数：32321人&lt;br style=&quot;border-color: var(--border-color);&quot;&gt;涉及微信号：12128个&lt;br style=&quot;border-color: var(--border-color);&quot;&gt;需发放总额：1634215元&lt;br style=&quot;border-color: var(--border-color);&quot;&gt;&lt;u style=&quot;border-color: var(--border-color);&quot;&gt;查看&lt;/u&gt;" style="rounded=0;whiteSpace=wrap;html=1;container=0;" vertex="1" parent="1">
          <mxGeometry x="982.2289156626507" y="760" width="142.40963855421688" height="102.5" as="geometry" />
        </mxCell>
        <mxCell id="V1CnUA2cE-rUWkjXoKsr-85" value="涉及红包数：67545个&lt;br style=&quot;border-color: var(--border-color);&quot;&gt;涉及用户数：32321人&lt;br style=&quot;border-color: var(--border-color);&quot;&gt;涉及微信号：12128个&lt;br style=&quot;border-color: var(--border-color);&quot;&gt;需发放总额：1634215元&lt;br style=&quot;border-color: var(--border-color);&quot;&gt;&lt;u style=&quot;border-color: var(--border-color);&quot;&gt;查看&lt;/u&gt;" style="rounded=0;whiteSpace=wrap;html=1;container=0;" vertex="1" parent="1">
          <mxGeometry x="555" y="760" width="142.40963855421688" height="102.5" as="geometry" />
        </mxCell>
        <mxCell id="V1CnUA2cE-rUWkjXoKsr-86" value="涉及红包数：67545个&lt;br style=&quot;border-color: var(--border-color);&quot;&gt;涉及用户数：32321人&lt;br style=&quot;border-color: var(--border-color);&quot;&gt;涉及微信号：12128个&lt;br style=&quot;border-color: var(--border-color);&quot;&gt;需发放总额：1634215元&lt;br style=&quot;border-color: var(--border-color);&quot;&gt;&lt;u style=&quot;border-color: var(--border-color);&quot;&gt;查看&lt;/u&gt;" style="rounded=0;whiteSpace=wrap;html=1;container=0;" vertex="1" parent="1">
          <mxGeometry x="697.4096385542168" y="760" width="142.40963855421688" height="102.5" as="geometry" />
        </mxCell>
        <mxCell id="V1CnUA2cE-rUWkjXoKsr-87" value="&lt;u&gt;查看&lt;/u&gt;" style="rounded=0;whiteSpace=wrap;html=1;container=0;" vertex="1" parent="1">
          <mxGeometry x="1267.0503614457832" y="760" width="142.40963855421688" height="102.5" as="geometry" />
        </mxCell>
        <mxCell id="V1CnUA2cE-rUWkjXoKsr-88" value="涉及红包数：67545个&lt;br style=&quot;border-color: var(--border-color);&quot;&gt;涉及用户数：32321人&lt;br style=&quot;border-color: var(--border-color);&quot;&gt;涉及微信号：12128个&lt;br style=&quot;border-color: var(--border-color);&quot;&gt;需发放总额：1634215元&lt;br style=&quot;border-color: var(--border-color);&quot;&gt;&lt;u style=&quot;border-color: var(--border-color);&quot;&gt;查看&lt;/u&gt;" style="rounded=0;whiteSpace=wrap;html=1;container=0;" vertex="1" parent="1">
          <mxGeometry x="1124.6389156626508" y="760" width="142.40963855421688" height="102.5" as="geometry" />
        </mxCell>
        <mxCell id="V1CnUA2cE-rUWkjXoKsr-89" value="&lt;p style=&quot;border-color: var(--border-color); text-align: left;&quot;&gt;&lt;font color=&quot;#00994d&quot;&gt;&lt;u&gt;发放完成&lt;/u&gt;&lt;/font&gt;&lt;/p&gt;" style="rounded=0;whiteSpace=wrap;html=1;container=0;" vertex="1" parent="1">
          <mxGeometry x="1409.4603614457833" y="760" width="142.40963855421688" height="102.5" as="geometry" />
        </mxCell>
        <mxCell id="V1CnUA2cE-rUWkjXoKsr-90" value="新增红包发放记录" style="rounded=0;whiteSpace=wrap;html=1;fillColor=#0050ef;strokeColor=#001DBC;fontColor=#ffffff;" vertex="1" parent="1">
          <mxGeometry x="1409.46" y="470" width="140" height="40" as="geometry" />
        </mxCell>
        <mxCell id="V1CnUA2cE-rUWkjXoKsr-91" value="操作" style="rounded=0;whiteSpace=wrap;html=1;container=0;" vertex="1" parent="1">
          <mxGeometry x="1551.8703614457834" y="525" width="142.40963855421688" height="40" as="geometry" />
        </mxCell>
        <mxCell id="V1CnUA2cE-rUWkjXoKsr-92" value="&lt;u style=&quot;color: rgb(0, 102, 204);&quot;&gt;编辑&lt;br&gt;&lt;/u&gt;&lt;br&gt;&lt;u style=&quot;&quot;&gt;&lt;font color=&quot;#ff0000&quot;&gt;删除&lt;/font&gt;&lt;/u&gt;" style="rounded=0;whiteSpace=wrap;html=1;container=0;" vertex="1" parent="1">
          <mxGeometry x="1551.8703614457834" y="565" width="142.40963855421688" height="102.5" as="geometry" />
        </mxCell>
        <mxCell id="V1CnUA2cE-rUWkjXoKsr-93" value="&lt;p style=&quot;border-color: var(--border-color); text-align: left;&quot;&gt;&lt;u style=&quot;border-color: var(--border-color); text-align: center; color: rgb(0, 102, 204);&quot;&gt;编辑&lt;/u&gt;&lt;br&gt;&lt;/p&gt;" style="rounded=0;whiteSpace=wrap;html=1;container=0;" vertex="1" parent="1">
          <mxGeometry x="1551.8703614457834" y="667.5" width="142.40963855421688" height="102.5" as="geometry" />
        </mxCell>
        <mxCell id="V1CnUA2cE-rUWkjXoKsr-94" value="&lt;p style=&quot;border-color: var(--border-color); text-align: left;&quot;&gt;&lt;u style=&quot;border-color: var(--border-color); text-align: center; color: rgb(0, 102, 204);&quot;&gt;编辑&lt;/u&gt;&lt;br&gt;&lt;/p&gt;" style="rounded=0;whiteSpace=wrap;html=1;container=0;" vertex="1" parent="1">
          <mxGeometry x="1551.8703614457834" y="760" width="142.40963855421688" height="102.5" as="geometry" />
        </mxCell>
        <mxCell id="V1CnUA2cE-rUWkjXoKsr-97" value="上传" style="rounded=0;whiteSpace=wrap;html=1;" vertex="1" parent="1">
          <mxGeometry x="1280" y="1110" width="80" height="40" as="geometry" />
        </mxCell>
        <mxCell id="V1CnUA2cE-rUWkjXoKsr-99" value="上传" style="rounded=0;whiteSpace=wrap;html=1;" vertex="1" parent="1">
          <mxGeometry x="1280" y="1150" width="80" height="40" as="geometry" />
        </mxCell>
        <mxCell id="V1CnUA2cE-rUWkjXoKsr-106" value="涉及红包数：67545个，涉及用户数：32321人，涉及微信号：12128个，需发放总额：1634215元&lt;br&gt;&lt;br style=&quot;border-color: var(--border-color);&quot;&gt;&lt;div style=&quot;text-align: left;&quot;&gt;礼包ID：4770887|礼包名：现金红包60元|红包数：42个|红包总金额：2520元&lt;/div&gt;&lt;div style=&quot;text-align: left;&quot;&gt;礼包ID：4770885|礼包名：现金红包10元|红包数：150个|红包总金额：1500元&lt;/div&gt;&lt;div style=&quot;text-align: left;&quot;&gt;礼包ID：4770907|礼包名：现金红包10元|红包数：264个|红包总金额：2640元&lt;/div&gt;&lt;div style=&quot;text-align: left;&quot;&gt;礼包ID：4770888|礼包名：现金红包99元|红包数：14个|红包总金额：1386元&lt;/div&gt;&lt;div style=&quot;text-align: left;&quot;&gt;礼包ID：4770908|礼包名：现金红包50元|红包数：38个|红包总金额：1900元&lt;/div&gt;&lt;div style=&quot;text-align: left;&quot;&gt;礼包ID：4771370|礼包名：现金红包188元|红包数：3个|红包总金额：564元&lt;/div&gt;&lt;div style=&quot;text-align: left;&quot;&gt;礼包ID：4770886|礼包名：现金红包20元|红包数：91个|红包总金额：1820元&lt;/div&gt;" style="rounded=0;whiteSpace=wrap;html=1;" vertex="1" parent="1">
          <mxGeometry x="680" y="1250" width="680" height="170" as="geometry" />
        </mxCell>
        <mxCell id="V1CnUA2cE-rUWkjXoKsr-107" value="原始礼包数据" style="rounded=0;whiteSpace=wrap;html=1;" vertex="1" parent="1">
          <mxGeometry x="680" y="1210" width="80" height="40" as="geometry" />
        </mxCell>
        <mxCell id="V1CnUA2cE-rUWkjXoKsr-110" value="成功关联微信号数据" style="rounded=0;whiteSpace=wrap;html=1;" vertex="1" parent="1">
          <mxGeometry x="760" y="1210" width="120" height="40" as="geometry" />
        </mxCell>
        <mxCell id="V1CnUA2cE-rUWkjXoKsr-111" value="转换失败数据" style="rounded=0;whiteSpace=wrap;html=1;" vertex="1" parent="1">
          <mxGeometry x="880" y="1210" width="120" height="40" as="geometry" />
        </mxCell>
        <mxCell id="V1CnUA2cE-rUWkjXoKsr-112" value="转换成功数据" style="rounded=0;whiteSpace=wrap;html=1;" vertex="1" parent="1">
          <mxGeometry x="1000" y="1210" width="120" height="40" as="geometry" />
        </mxCell>
        <mxCell id="V1CnUA2cE-rUWkjXoKsr-113" value="黑名单数据" style="rounded=0;whiteSpace=wrap;html=1;" vertex="1" parent="1">
          <mxGeometry x="1120" y="1210" width="120" height="40" as="geometry" />
        </mxCell>
        <mxCell id="V1CnUA2cE-rUWkjXoKsr-114" value="最终数据" style="rounded=0;whiteSpace=wrap;html=1;" vertex="1" parent="1">
          <mxGeometry x="1240" y="1210" width="120" height="40" as="geometry" />
        </mxCell>
        <mxCell id="V1CnUA2cE-rUWkjXoKsr-115" value="&lt;div&gt;&amp;nbsp; &amp;nbsp; &amp;nbsp; &amp;nbsp; &amp;nbsp; &amp;nbsp; &amp;nbsp; &amp;nbsp; 礼包ID：4770908|礼包名：现金红包50元|红包数：4965个|红包总金额：248250元&lt;/div&gt;&lt;div&gt;&amp;nbsp; &amp;nbsp; &amp;nbsp; &amp;nbsp; &amp;nbsp; &amp;nbsp; &amp;nbsp; &amp;nbsp; &amp;nbsp; &amp;nbsp; &amp;nbsp; &amp;nbsp; 【分包】第1段|礼包ID：4770908|礼包名：现金红包50元|红包数：2000个|红包总金额：100000元&amp;nbsp; &amp;nbsp; &amp;nbsp;&amp;nbsp;&lt;u&gt;下载&lt;/u&gt;&lt;/div&gt;&lt;div&gt;&amp;nbsp; &amp;nbsp; &amp;nbsp; &amp;nbsp; &amp;nbsp; &amp;nbsp; &amp;nbsp; &amp;nbsp; &amp;nbsp; &amp;nbsp; &amp;nbsp; &amp;nbsp; 【分包】第2段|礼包ID：4770908|礼包名：现金红包50元|红包数：2000个|红包总金额：100000元&amp;nbsp; &amp;nbsp; &amp;nbsp;&amp;nbsp;&lt;u&gt;下载&lt;/u&gt;&lt;/div&gt;&lt;div&gt;&amp;nbsp; &amp;nbsp; &amp;nbsp; &amp;nbsp; &amp;nbsp; &amp;nbsp; &amp;nbsp; &amp;nbsp; &amp;nbsp; &amp;nbsp; &amp;nbsp; &amp;nbsp; 【分包】第3段|礼包ID：4770908|礼包名：现金红包50元|红包数：965个|红包总金额：48250元&amp;nbsp; &amp;nbsp; &amp;nbsp; &amp;nbsp; &amp;nbsp;&amp;nbsp;&lt;u&gt;下载&lt;/u&gt;&lt;/div&gt;&lt;div&gt;&amp;nbsp; &amp;nbsp; &amp;nbsp; &amp;nbsp; &amp;nbsp; &amp;nbsp; &amp;nbsp; &amp;nbsp; 礼包ID：4770888|礼包名：现金红包99元|红包数：1981个|红包总金额：196119元&lt;/div&gt;&lt;div&gt;&amp;nbsp; &amp;nbsp; &amp;nbsp; &amp;nbsp; &amp;nbsp; &amp;nbsp; &amp;nbsp; &amp;nbsp; &amp;nbsp; &amp;nbsp; &amp;nbsp; &amp;nbsp; 【分包】第1段|礼包ID：4770888|礼包名：现金红包99元|红包数：1981个|红包总金额：196119元&amp;nbsp; &amp;nbsp; &amp;nbsp; &lt;u&gt;下载&lt;/u&gt;&lt;/div&gt;&lt;div&gt;&amp;nbsp; &amp;nbsp; &amp;nbsp; &amp;nbsp; &amp;nbsp; &amp;nbsp; &amp;nbsp; &amp;nbsp; 礼包ID：4771370|礼包名：现金红包188元|红包数：1044个|红包总金额：196272元&lt;/div&gt;&lt;div&gt;&amp;nbsp; &amp;nbsp; &amp;nbsp; &amp;nbsp; &amp;nbsp; &amp;nbsp; &amp;nbsp; &amp;nbsp; &amp;nbsp; &amp;nbsp; &amp;nbsp; &amp;nbsp; 【分包】第1段|礼包ID：4771370|礼包名：现金红包188元|红包数：1044个|红包总金额：196272元&amp;nbsp; &amp;nbsp; &lt;u&gt;下载&lt;/u&gt;&lt;/div&gt;&lt;div&gt;&amp;nbsp; &amp;nbsp; &amp;nbsp; &amp;nbsp; &amp;nbsp; &amp;nbsp; &amp;nbsp; &amp;nbsp; 礼包ID：4770889|礼包名：现金红包188元|红包数：28个|红包总金额：5264元&lt;/div&gt;&lt;div&gt;&amp;nbsp; &amp;nbsp; &amp;nbsp; &amp;nbsp; &amp;nbsp; &amp;nbsp; &amp;nbsp; &amp;nbsp; &amp;nbsp; &amp;nbsp; &amp;nbsp; &amp;nbsp; 【分包】第1段|礼包ID：4770889|礼包名：现金红包188元|红包数：28个|红包总金额：5264元&amp;nbsp; &amp;nbsp; &amp;nbsp; &amp;nbsp; &amp;nbsp; &amp;nbsp; &lt;u&gt;下载&lt;/u&gt;&lt;/div&gt;&lt;div&gt;&amp;nbsp; &amp;nbsp; &amp;nbsp; &amp;nbsp; &amp;nbsp; &amp;nbsp; &amp;nbsp; &amp;nbsp; 礼包ID：4770907|礼包名：现金红包10元|红包数：24862个|红包总金额：248620元&lt;/div&gt;&lt;div&gt;&amp;nbsp; &amp;nbsp; &amp;nbsp; &amp;nbsp; &amp;nbsp; &amp;nbsp; &amp;nbsp; &amp;nbsp; &amp;nbsp; &amp;nbsp; &amp;nbsp; &amp;nbsp; 【分包】第1段|礼包ID：4770907|礼包名：现金红包10元|红包数：2000个|红包总金额：20000元&amp;nbsp; &amp;nbsp; &amp;nbsp; &amp;nbsp; &lt;u&gt;下载&lt;/u&gt;&lt;/div&gt;&lt;div&gt;&amp;nbsp; &amp;nbsp; &amp;nbsp; &amp;nbsp; &amp;nbsp; &amp;nbsp; &amp;nbsp; &amp;nbsp; &amp;nbsp; &amp;nbsp; &amp;nbsp; &amp;nbsp; 【分包】第2段|礼包ID：4770907|礼包名：现金红包10元|红包数：2000个|红包总金额：20000元&amp;nbsp; &amp;nbsp; &amp;nbsp; &amp;nbsp; &lt;u&gt;下载&lt;/u&gt;&lt;/div&gt;&lt;div&gt;&amp;nbsp; &amp;nbsp; &amp;nbsp; &amp;nbsp; &amp;nbsp; &amp;nbsp; &amp;nbsp; &amp;nbsp; &amp;nbsp; &amp;nbsp; &amp;nbsp; &amp;nbsp; 【分包】第3段|礼包ID：4770907|礼包名：现金红包10元|红包数：2000个|红包总金额：20000元&lt;/div&gt;&lt;div&gt;&amp;nbsp; &amp;nbsp; &amp;nbsp; &amp;nbsp; &amp;nbsp; &amp;nbsp; &amp;nbsp; &amp;nbsp; &amp;nbsp; &amp;nbsp; &amp;nbsp; &amp;nbsp; 【分包】第4段|礼包ID：4770907|礼包名：现金红包10元|红包数：2000个|红包总金额：20000元&lt;/div&gt;&lt;div&gt;&amp;nbsp; &amp;nbsp; &amp;nbsp; &amp;nbsp; &amp;nbsp; &amp;nbsp; &amp;nbsp; &amp;nbsp; &amp;nbsp; &amp;nbsp; &amp;nbsp; &amp;nbsp; 【分包】第5段|礼包ID：4770907|礼包名：现金红包10元|红包数：2000个|红包总金额：20000元&lt;/div&gt;&lt;div&gt;&amp;nbsp; &amp;nbsp; &amp;nbsp; &amp;nbsp; &amp;nbsp; &amp;nbsp; &amp;nbsp; &amp;nbsp; &amp;nbsp; &amp;nbsp; &amp;nbsp; &amp;nbsp; 【分包】第6段|礼包ID：4770907|礼包名：现金红包10元|红包数：2000个|红包总金额：20000元&lt;/div&gt;&lt;div&gt;&amp;nbsp; &amp;nbsp; &amp;nbsp; &amp;nbsp; &amp;nbsp; &amp;nbsp; &amp;nbsp; &amp;nbsp; &amp;nbsp; &amp;nbsp; &amp;nbsp; &amp;nbsp; 【分包】第7段|礼包ID：4770907|礼包名：现金红包10元|红包数：2000个|红包总金额：20000元&lt;/div&gt;&lt;div&gt;&amp;nbsp; &amp;nbsp; &amp;nbsp; &amp;nbsp; &amp;nbsp; &amp;nbsp; &amp;nbsp; &amp;nbsp; &amp;nbsp; &amp;nbsp; &amp;nbsp; &amp;nbsp; 【分包】第8段|礼包ID：4770907|礼包名：现金红包10元|红包数：2000个|红包总金额：20000元&lt;/div&gt;&lt;div&gt;&amp;nbsp; &amp;nbsp; &amp;nbsp; &amp;nbsp; &amp;nbsp; &amp;nbsp; &amp;nbsp; &amp;nbsp; &amp;nbsp; &amp;nbsp; &amp;nbsp; &amp;nbsp; 【分包】第9段|礼包ID：4770907|礼包名：现金红包10元|红包数：2000个|红包总金额：20000元&lt;/div&gt;&lt;div&gt;&amp;nbsp; &amp;nbsp; &amp;nbsp; &amp;nbsp; &amp;nbsp; &amp;nbsp; &amp;nbsp; &amp;nbsp; &amp;nbsp; &amp;nbsp; &amp;nbsp; &amp;nbsp; 【分包】第10段|礼包ID：4770907|礼包名：现金红包10元|红包数：2000个|红包总金额：20000元&lt;/div&gt;&lt;div&gt;&amp;nbsp; &amp;nbsp; &amp;nbsp; &amp;nbsp; &amp;nbsp; &amp;nbsp; &amp;nbsp; &amp;nbsp; &amp;nbsp; &amp;nbsp; &amp;nbsp; &amp;nbsp; 【分包】第11段|礼包ID：4770907|礼包名：现金红包10元|红包数：2000个|红包总金额：20000元&lt;/div&gt;&lt;div&gt;&amp;nbsp; &amp;nbsp; &amp;nbsp; &amp;nbsp; &amp;nbsp; &amp;nbsp; &amp;nbsp; &amp;nbsp; &amp;nbsp; &amp;nbsp; &amp;nbsp; &amp;nbsp; 【分包】第12段|礼包ID：4770907|礼包名：现金红包10元|红包数：2000个|红包总金额：20000元&lt;/div&gt;&lt;div&gt;&amp;nbsp; &amp;nbsp; &amp;nbsp; &amp;nbsp; &amp;nbsp; &amp;nbsp; &amp;nbsp; &amp;nbsp; &amp;nbsp; &amp;nbsp; &amp;nbsp; &amp;nbsp; 【分包】第13段|礼包ID：4770907|礼包名：现金红包10元|红包数：862个|红包总金额：8620元&lt;/div&gt;&lt;div&gt;&amp;nbsp; &amp;nbsp; &amp;nbsp; &amp;nbsp; &amp;nbsp; &amp;nbsp; &amp;nbsp; &amp;nbsp; 礼包ID：4770887|礼包名：现金红包60元|红包数：5904个|红包总金额：354240元&lt;/div&gt;&lt;div&gt;&amp;nbsp; &amp;nbsp; &amp;nbsp; &amp;nbsp; &amp;nbsp; &amp;nbsp; &amp;nbsp; &amp;nbsp; &amp;nbsp; &amp;nbsp; &amp;nbsp; &amp;nbsp; 【分包】第1段|礼包ID：4770887|礼包名：现金红包60元|红包数：2000个|红包总金额：120000元&lt;/div&gt;&lt;div&gt;&amp;nbsp; &amp;nbsp; &amp;nbsp; &amp;nbsp; &amp;nbsp; &amp;nbsp; &amp;nbsp; &amp;nbsp; &amp;nbsp; &amp;nbsp; &amp;nbsp; &amp;nbsp; 【分包】第2段|礼包ID：4770887|礼包名：现金红包60元|红包数：2000个|红包总金额：120000元&lt;/div&gt;&lt;div&gt;&amp;nbsp; &amp;nbsp; &amp;nbsp; &amp;nbsp; &amp;nbsp; &amp;nbsp; &amp;nbsp; &amp;nbsp; &amp;nbsp; &amp;nbsp; &amp;nbsp; &amp;nbsp; 【分包】第3段|礼包ID：4770887|礼包名：现金红包60元|红包数：1904个|红包总金额：114240元&lt;/div&gt;&lt;div&gt;&amp;nbsp; &amp;nbsp; &amp;nbsp; &amp;nbsp; &amp;nbsp; &amp;nbsp; &amp;nbsp; &amp;nbsp; 礼包ID：4770885|礼包名：现金红包10元|红包数：18970个|红包总金额：189700元&lt;/div&gt;&lt;div&gt;&amp;nbsp; &amp;nbsp; &amp;nbsp; &amp;nbsp; &amp;nbsp; &amp;nbsp; &amp;nbsp; &amp;nbsp; &amp;nbsp; &amp;nbsp; &amp;nbsp; &amp;nbsp; 【分包】第1段|礼包ID：4770885|礼包名：现金红包10元|红包数：2000个|红包总金额：20000元&lt;/div&gt;&lt;div&gt;&amp;nbsp; &amp;nbsp; &amp;nbsp; &amp;nbsp; &amp;nbsp; &amp;nbsp; &amp;nbsp; &amp;nbsp; &amp;nbsp; &amp;nbsp; &amp;nbsp; &amp;nbsp; 【分包】第2段|礼包ID：4770885|礼包名：现金红包10元|红包数：2000个|红包总金额：20000元&lt;/div&gt;&lt;div&gt;&amp;nbsp; &amp;nbsp; &amp;nbsp; &amp;nbsp; &amp;nbsp; &amp;nbsp; &amp;nbsp; &amp;nbsp; &amp;nbsp; &amp;nbsp; &amp;nbsp; &amp;nbsp; 【分包】第3段|礼包ID：4770885|礼包名：现金红包10元|红包数：2000个|红包总金额：20000元&lt;/div&gt;&lt;div&gt;&amp;nbsp; &amp;nbsp; &amp;nbsp; &amp;nbsp; &amp;nbsp; &amp;nbsp; &amp;nbsp; &amp;nbsp; &amp;nbsp; &amp;nbsp; &amp;nbsp; &amp;nbsp; 【分包】第4段|礼包ID：4770885|礼包名：现金红包10元|红包数：2000个|红包总金额：20000元&lt;/div&gt;&lt;div&gt;&amp;nbsp; &amp;nbsp; &amp;nbsp; &amp;nbsp; &amp;nbsp; &amp;nbsp; &amp;nbsp; &amp;nbsp; &amp;nbsp; &amp;nbsp; &amp;nbsp; &amp;nbsp; 【分包】第5段|礼包ID：4770885|礼包名：现金红包10元|红包数：2000个|红包总金额：20000元&lt;/div&gt;&lt;div&gt;&amp;nbsp; &amp;nbsp; &amp;nbsp; &amp;nbsp; &amp;nbsp; &amp;nbsp; &amp;nbsp; &amp;nbsp; &amp;nbsp; &amp;nbsp; &amp;nbsp; &amp;nbsp; 【分包】第6段|礼包ID：4770885|礼包名：现金红包10元|红包数：2000个|红包总金额：20000元&lt;/div&gt;&lt;div&gt;&amp;nbsp; &amp;nbsp; &amp;nbsp; &amp;nbsp; &amp;nbsp; &amp;nbsp; &amp;nbsp; &amp;nbsp; &amp;nbsp; &amp;nbsp; &amp;nbsp; &amp;nbsp; 【分包】第7段|礼包ID：4770885|礼包名：现金红包10元|红包数：2000个|红包总金额：20000元&lt;/div&gt;&lt;div&gt;&amp;nbsp; &amp;nbsp; &amp;nbsp; &amp;nbsp; &amp;nbsp; &amp;nbsp; &amp;nbsp; &amp;nbsp; &amp;nbsp; &amp;nbsp; &amp;nbsp; &amp;nbsp; 【分包】第8段|礼包ID：4770885|礼包名：现金红包10元|红包数：2000个|红包总金额：20000元&lt;/div&gt;" style="rounded=0;whiteSpace=wrap;html=1;align=left;" vertex="1" parent="1">
          <mxGeometry x="680" y="1420" width="680" height="610" as="geometry" />
        </mxCell>
        <mxCell id="V1CnUA2cE-rUWkjXoKsr-116" value="" style="group;align=left;spacingLeft=7;" vertex="1" connectable="0" parent="1">
          <mxGeometry x="680" y="990" width="580" height="200" as="geometry" />
        </mxCell>
        <mxCell id="V1CnUA2cE-rUWkjXoKsr-95" value="礼包记录：users.csv" style="rounded=0;whiteSpace=wrap;html=1;align=left;spacingLeft=7;" vertex="1" parent="V1CnUA2cE-rUWkjXoKsr-116">
          <mxGeometry y="120" width="580" height="40" as="geometry" />
        </mxCell>
        <mxCell id="V1CnUA2cE-rUWkjXoKsr-98" value="业受微信号转换结果：P1231327238292_export.txt" style="rounded=0;whiteSpace=wrap;html=1;align=left;spacingLeft=7;" vertex="1" parent="V1CnUA2cE-rUWkjXoKsr-116">
          <mxGeometry y="160" width="580" height="40" as="geometry" />
        </mxCell>
        <mxCell id="V1CnUA2cE-rUWkjXoKsr-100" value="记录结束时间：xxxx" style="rounded=0;whiteSpace=wrap;html=1;align=left;spacingLeft=7;" vertex="1" parent="V1CnUA2cE-rUWkjXoKsr-116">
          <mxGeometry y="80" width="580" height="40" as="geometry" />
        </mxCell>
        <mxCell id="V1CnUA2cE-rUWkjXoKsr-102" value="记录开始时间：xxxx" style="rounded=0;whiteSpace=wrap;html=1;align=left;spacingLeft=7;" vertex="1" parent="V1CnUA2cE-rUWkjXoKsr-116">
          <mxGeometry y="40" width="580" height="40" as="geometry" />
        </mxCell>
        <mxCell id="V1CnUA2cE-rUWkjXoKsr-104" value="活动ID: xxx" style="rounded=0;whiteSpace=wrap;html=1;align=left;spacingLeft=7;" vertex="1" parent="V1CnUA2cE-rUWkjXoKsr-116">
          <mxGeometry width="580" height="40" as="geometry" />
        </mxCell>
      </root>
    </mxGraphModel>
  </diagram>
</mxfile>
